<?xml version="1.0" standalone="no"?>
<!DOCTYPE svg PUBLIC "-//W3C//DTD SVG 20010904//EN"
 "http://www.w3.org/TR/2001/REC-SVG-20010904/DTD/svg10.dtd">
<svg version="1.0" xmlns="http://www.w3.org/2000/svg"
 width="1024.000000pt" height="1024.000000pt" viewBox="0 0 1024.000000 1024.000000"
 preserveAspectRatio="xMidYMid meet">

<g transform="translate(0.000000,1024.000000) scale(0.100000,-0.100000)"
fill="#000000" stroke="none">
<path d="M2345 8210 c-13 -6 -5 -7 25 -3 25 3 47 7 49 9 9 8 -55 2 -74 -6z"/>
<path d="M2263 8171 c-46 -33 -83 -101 -83 -152 1 -47 31 -108 71 -144 l34
-30 -32 35 c-90 99 -79 225 25 291 25 16 41 29 35 29 -5 0 -28 -13 -50 -29z"/>
<path d="M2524 8174 c39 -13 75 -24 80 -23 6 0 -20 11 -58 25 -39 13 -75 24
-80 23 -6 0 20 -11 58 -25z"/>
<path d="M2680 8125 c19 -7 42 -13 50 -13 8 0 -1 6 -20 13 -19 7 -42 13 -50
13 -8 0 1 -6 20 -13z"/>
<path d="M2850 8074 c58 -19 109 -33 114 -31 9 3 -197 68 -211 66 -4 -1 39
-16 97 -35z"/>
<path d="M3010 8025 c19 -7 42 -13 50 -13 8 0 -1 6 -20 13 -19 7 -42 13 -50
13 -8 0 1 -6 20 -13z"/>
<path d="M3136 7981 c78 -37 138 -97 175 -175 16 -33 27 -50 23 -36 -27 102
-132 207 -234 234 -14 4 3 -7 36 -23z"/>
<path d="M2296 7841 c12 -11 114 -44 119 -39 3 2 -25 14 -62 26 -36 12 -62 17
-57 13z"/>
<path d="M2510 7769 c46 -16 89 -29 95 -28 5 0 -28 14 -75 30 -46 16 -89 29
-95 28 -5 0 28 -14 75 -30z"/>
<path d="M2650 7725 c19 -7 42 -13 50 -13 8 0 -1 6 -20 13 -19 7 -42 13 -50
13 -8 0 1 -6 20 -13z"/>
<path d="M3341 7724 c0 -11 3 -14 6 -6 3 7 2 16 -1 19 -3 4 -6 -2 -5 -13z"/>
<path d="M2780 7685 c19 -7 42 -13 50 -13 8 0 -1 6 -20 13 -19 7 -42 13 -50
13 -8 0 1 -6 20 -13z"/>
<path d="M3352 7690 c0 -8 4 -26 8 -40 6 -20 8 -21 8 -5 0 11 -3 29 -8 40 -5
12 -8 14 -8 5z"/>
<path d="M2865 7660 c11 -5 27 -9 35 -9 9 0 8 4 -5 9 -11 5 -27 9 -35 9 -9 0
-8 -4 5 -9z"/>
<path d="M2938 7638 c12 -6 22 -18 23 -27 0 -13 2 -13 6 -2 6 14 -22 42 -41
40 -6 0 -1 -5 12 -11z"/>
<path d="M3371 7604 c0 -11 3 -14 6 -6 3 7 2 16 -1 19 -3 4 -6 -2 -5 -13z"/>
<path d="M2972 7575 c0 -11 4 -31 8 -45 6 -20 8 -21 8 -5 0 11 -4 31 -8 45 -6
20 -8 21 -8 5z"/>
<path d="M3382 7560 c0 -14 2 -19 5 -12 2 6 2 18 0 25 -3 6 -5 1 -5 -13z"/>
<path d="M3392 7510 c0 -14 2 -19 5 -12 2 6 2 18 0 25 -3 6 -5 1 -5 -13z"/>
<path d="M2992 7485 c0 -11 4 -31 8 -45 6 -20 8 -21 8 -5 0 11 -4 31 -8 45 -6
20 -8 21 -8 5z"/>
<path d="M3401 7464 c0 -11 3 -14 6 -6 3 7 2 16 -1 19 -3 4 -6 -2 -5 -13z"/>
<path d="M3412 7420 c0 -14 2 -19 5 -12 2 6 2 18 0 25 -3 6 -5 1 -5 -13z"/>
<path d="M3012 7390 c0 -14 2 -19 5 -12 2 6 2 18 0 25 -3 6 -5 1 -5 -13z"/>
<path d="M3420 7384 c0 -6 6 -17 14 -23 10 -8 562 -10 2087 -8 l2074 2 -2077
3 c-1966 2 -2078 3 -2087 20 -6 9 -11 12 -11 6z"/>
<path d="M3021 7344 c0 -11 3 -14 6 -6 3 7 2 16 -1 19 -3 4 -6 -2 -5 -13z"/>
<path d="M7648 7324 c57 -28 93 -69 117 -130 12 -31 14 -33 10 -9 -4 17 -17
47 -31 68 -25 39 -105 97 -133 97 -8 0 9 -12 37 -26z"/>
<path d="M3031 7305 c0 -11 6 -42 13 -70 18 -65 19 -37 1 35 -7 30 -14 46 -14
35z"/>
<path d="M3062 7165 c0 -11 4 -31 8 -45 6 -20 8 -21 8 -5 0 11 -4 31 -8 45 -6
20 -8 21 -8 5z"/>
<path d="M7783 7085 c0 -38 2 -53 4 -32 2 20 2 52 0 70 -2 17 -4 1 -4 -38z"/>
<path d="M3082 7075 c0 -11 4 -31 8 -45 6 -20 8 -21 8 -5 0 11 -4 31 -8 45 -6
20 -8 21 -8 5z"/>
<path d="M7772 6985 c0 -16 2 -22 5 -12 2 9 2 23 0 30 -3 6 -5 -1 -5 -18z"/>
<path d="M3102 6985 c0 -11 4 -31 8 -45 6 -20 8 -21 8 -5 0 11 -4 31 -8 45 -6
20 -8 21 -8 5z"/>
<path d="M7762 6930 c0 -14 2 -19 5 -12 2 6 2 18 0 25 -3 6 -5 1 -5 -13z"/>
<path d="M3122 6895 c0 -11 4 -31 8 -45 6 -20 8 -21 8 -5 0 11 -4 31 -8 45 -6
20 -8 21 -8 5z"/>
<path d="M7752 6880 c0 -14 2 -19 5 -12 2 6 2 18 0 25 -3 6 -5 1 -5 -13z"/>
<path d="M7721 6739 c-12 -61 -20 -113 -18 -115 2 -3 14 46 26 107 12 61 20
113 18 115 -2 3 -14 -46 -26 -107z"/>
<path d="M3141 6810 c0 -8 6 -37 13 -65 8 -27 15 -43 15 -35 0 8 -6 38 -13 65
-8 28 -15 43 -15 35z"/>
<path d="M3172 6670 c0 -14 2 -19 5 -12 2 6 2 18 0 25 -3 6 -5 1 -5 -13z"/>
<path d="M3181 6624 c0 -11 3 -14 6 -6 3 7 2 16 -1 19 -3 4 -6 -2 -5 -13z"/>
<path d="M7692 6590 c0 -14 2 -19 5 -12 2 6 2 18 0 25 -3 6 -5 1 -5 -13z"/>
<path d="M3192 6580 c0 -14 2 -19 5 -12 2 6 2 18 0 25 -3 6 -5 1 -5 -13z"/>
<path d="M7682 6540 c0 -14 2 -19 5 -12 2 6 2 18 0 25 -3 6 -5 1 -5 -13z"/>
<path d="M3202 6535 c0 -11 4 -31 8 -45 6 -20 8 -21 8 -5 0 11 -4 31 -8 45 -6
20 -8 21 -8 5z"/>
<path d="M7672 6490 c0 -14 2 -19 5 -12 2 6 2 18 0 25 -3 6 -5 1 -5 -13z"/>
<path d="M3221 6444 c0 -11 3 -14 6 -6 3 7 2 16 -1 19 -3 4 -6 -2 -5 -13z"/>
<path d="M7662 6440 c0 -14 2 -19 5 -12 2 6 2 18 0 25 -3 6 -5 1 -5 -13z"/>
<path d="M3232 6400 c0 -14 2 -19 5 -12 2 6 2 18 0 25 -3 6 -5 1 -5 -13z"/>
<path d="M7646 6374 c-4 -20 -5 -38 -3 -40 3 -3 8 11 11 32 4 20 5 38 3 40 -3
3 -8 -11 -11 -32z"/>
<path d="M3241 6354 c0 -11 3 -14 6 -6 3 7 2 16 -1 19 -3 4 -6 -2 -5 -13z"/>
<path d="M3252 6315 c0 -11 4 -31 8 -45 6 -20 8 -21 8 -5 0 11 -4 31 -8 45 -6
20 -8 21 -8 5z"/>
<path d="M7632 6300 c0 -14 2 -19 5 -12 2 6 2 18 0 25 -3 6 -5 1 -5 -13z"/>
<path d="M7622 6250 c0 -14 2 -19 5 -12 2 6 2 18 0 25 -3 6 -5 1 -5 -13z"/>
<path d="M3272 6220 c0 -14 2 -19 5 -12 2 6 2 18 0 25 -3 6 -5 1 -5 -13z"/>
<path d="M7612 6200 c0 -14 2 -19 5 -12 2 6 2 18 0 25 -3 6 -5 1 -5 -13z"/>
<path d="M3281 6174 c0 -11 3 -14 6 -6 3 7 2 16 -1 19 -3 4 -6 -2 -5 -13z"/>
<path d="M7602 6150 c0 -14 2 -19 5 -12 2 6 2 18 0 25 -3 6 -5 1 -5 -13z"/>
<path d="M3292 6135 c0 -11 4 -31 8 -45 6 -20 8 -21 8 -5 0 11 -4 31 -8 45 -6
20 -8 21 -8 5z"/>
<path d="M7592 6100 c0 -14 2 -19 5 -12 2 6 2 18 0 25 -3 6 -5 1 -5 -13z"/>
<path d="M7582 6050 c0 -14 2 -19 5 -12 2 6 2 18 0 25 -3 6 -5 1 -5 -13z"/>
<path d="M3312 6045 c0 -11 4 -31 8 -45 6 -20 8 -21 8 -5 0 11 -4 31 -8 45 -6
20 -8 21 -8 5z"/>
<path d="M7572 6000 c0 -14 2 -19 5 -12 2 6 2 18 0 25 -3 6 -5 1 -5 -13z"/>
<path d="M3332 5955 c0 -11 4 -31 8 -45 6 -20 8 -21 8 -5 0 11 -4 31 -8 45 -6
20 -8 21 -8 5z"/>
<path d="M7555 5930 c-4 -23 -5 -43 -2 -46 2 -3 7 14 11 37 4 23 5 44 2 46 -2
2 -7 -14 -11 -37z"/>
<path d="M3351 5864 c0 -11 3 -14 6 -6 3 7 2 16 -1 19 -3 4 -6 -2 -5 -13z"/>
<path d="M7536 5834 c-4 -20 -5 -38 -3 -40 3 -3 8 11 11 32 4 20 5 38 3 40 -3
3 -8 -11 -11 -32z"/>
<path d="M3362 5820 c0 -14 2 -19 5 -12 2 6 2 18 0 25 -3 6 -5 1 -5 -13z"/>
<path d="M3371 5774 c0 -11 3 -14 6 -6 3 7 2 16 -1 19 -3 4 -6 -2 -5 -13z"/>
<path d="M7522 5760 c0 -14 2 -19 5 -12 2 6 2 18 0 25 -3 6 -5 1 -5 -13z"/>
<path d="M3382 5730 c0 -14 2 -19 5 -12 2 6 2 18 0 25 -3 6 -5 1 -5 -13z"/>
<path d="M7512 5710 c0 -14 2 -19 5 -12 2 6 2 18 0 25 -3 6 -5 1 -5 -13z"/>
<path d="M3391 5684 c0 -11 3 -14 6 -6 3 7 2 16 -1 19 -3 4 -6 -2 -5 -13z"/>
<path d="M7496 5639 c-4 -23 -5 -44 -2 -46 2 -2 7 14 11 37 4 23 5 43 2 46 -2
3 -7 -14 -11 -37z"/>
<path d="M3402 5640 c0 -14 2 -19 5 -12 2 6 2 18 0 25 -3 6 -5 1 -5 -13z"/>
<path d="M3412 5595 c0 -11 4 -31 8 -45 6 -20 8 -21 8 -5 0 11 -4 31 -8 45 -6
20 -8 21 -8 5z"/>
<path d="M7482 5560 c0 -14 2 -19 5 -12 2 6 2 18 0 25 -3 6 -5 1 -5 -13z"/>
<path d="M7436 5344 c-21 -102 -36 -188 -33 -190 2 -2 21 79 41 182 21 102 36
188 33 190 -2 2 -21 -79 -41 -182z"/>
<path d="M3432 5505 c0 -11 4 -31 8 -45 6 -20 8 -21 8 -5 0 11 -4 31 -8 45 -6
20 -8 21 -8 5z"/>
<path d="M3452 5415 c0 -11 4 -31 8 -45 6 -20 8 -21 8 -5 0 11 -4 31 -8 45 -6
20 -8 21 -8 5z"/>
<path d="M3472 5325 c0 -11 4 -31 8 -45 6 -20 8 -21 8 -5 0 11 -4 31 -8 45 -6
20 -8 21 -8 5z"/>
<path d="M3492 5235 c0 -11 4 -31 8 -45 6 -20 8 -21 8 -5 0 11 -4 31 -8 45 -6
20 -8 21 -8 5z"/>
<path d="M3512 5145 c0 -11 4 -31 8 -45 6 -20 8 -21 8 -5 0 11 -4 31 -8 45 -6
20 -8 21 -8 5z"/>
<path d="M7391 5124 c0 -11 3 -14 6 -6 3 7 2 16 -1 19 -3 4 -6 -2 -5 -13z"/>
<path d="M7381 5093 c-1 -6 -4 -20 -7 -30 -5 -17 -5 -17 6 0 6 10 9 23 6 30
-3 9 -5 9 -5 0z"/>
<path d="M3532 5055 c0 -11 4 -31 8 -45 6 -20 8 -21 8 -5 0 11 -4 31 -8 45 -6
20 -8 21 -8 5z"/>
<path d="M7343 4996 c-29 -58 -78 -113 -132 -148 -25 -15 -40 -28 -34 -28 16
0 85 53 120 94 33 37 78 115 71 122 -3 2 -14 -16 -25 -40z"/>
<path d="M3552 4965 c0 -11 4 -31 8 -45 6 -20 8 -21 8 -5 0 11 -4 31 -8 45 -6
20 -8 21 -8 5z"/>
<path d="M3572 4870 c0 -14 2 -19 5 -12 2 6 2 18 0 25 -3 6 -5 1 -5 -13z"/>
<path d="M3581 4824 c0 -11 3 -14 6 -6 3 7 2 16 -1 19 -3 4 -6 -2 -5 -13z"/>
<path d="M7093 4803 c9 -2 23 -2 30 0 6 3 -1 5 -18 5 -16 0 -22 -2 -12 -5z"/>
<path d="M3592 4785 c0 -24 35 -166 36 -145 1 8 -7 49 -17 90 -11 41 -19 66
-19 55z"/>
<path d="M3993 4785 c-3 -9 -3 -19 1 -22 3 -4 6 1 6 10 0 16 111 17 1538 20
l1537 2 -1538 3 c-1378 2 -1538 0 -1544 -13z"/>
<path d="M4002 4740 c0 -8 4 -26 8 -40 6 -20 8 -21 8 -5 0 11 -3 29 -8 40 -5
12 -8 14 -8 5z"/>
<path d="M4022 4655 c0 -11 4 -31 8 -45 6 -20 8 -21 8 -5 0 11 -4 31 -8 45 -6
20 -8 21 -8 5z"/>
<path d="M3632 4605 c0 -11 4 -31 8 -45 6 -20 8 -21 8 -5 0 11 -4 31 -8 45 -6
20 -8 21 -8 5z"/>
<path d="M4042 4560 c0 -14 2 -19 5 -12 2 6 2 18 0 25 -3 6 -5 1 -5 -13z"/>
<path d="M3652 4510 c0 -14 2 -19 5 -12 2 6 2 18 0 25 -3 6 -5 1 -5 -13z"/>
<path d="M4051 4514 c0 -11 3 -14 6 -6 3 7 2 16 -1 19 -3 4 -6 -2 -5 -13z"/>
<path d="M4061 4474 c0 -11 3 -14 6 -6 3 7 2 16 -1 19 -3 4 -6 -2 -5 -13z"/>
<path d="M3661 4464 c0 -11 3 -14 6 -6 3 7 2 16 -1 19 -3 4 -6 -2 -5 -13z"/>
<path d="M4071 4445 c-2 -23 32 -55 67 -65 25 -6 508 -9 1472 -8 l1435 3
-1455 5 c-1565 5 -1483 2 -1509 55 -5 11 -10 15 -10 10z"/>
<path d="M3672 4425 c0 -11 3 -29 8 -40 11 -25 11 1 0 35 -6 20 -8 21 -8 5z"/>
<path d="M7091 4342 c24 -16 50 -41 58 -55 8 -15 16 -25 19 -23 14 15 -84 106
-114 106 -4 0 12 -13 37 -28z"/>
<path d="M3700 4321 c0 -7 13 -41 30 -75 32 -68 93 -143 143 -177 18 -12 12
-3 -16 21 -58 51 -101 113 -133 188 -13 31 -23 51 -24 43z"/>
<path d="M7183 4185 c0 -22 2 -30 4 -17 2 12 2 30 0 40 -3 9 -5 -1 -4 -23z"/>
<path d="M7162 4108 c-10 -30 -10 -31 3 -14 13 17 21 46 12 46 -1 0 -8 -15
-15 -32z"/>
<path d="M7129 4053 c-8 -9 -36 -27 -64 -39 -27 -13 -44 -24 -37 -24 20 0 85
36 106 59 11 12 17 21 14 21 -3 0 -12 -7 -19 -17z"/>
<path d="M3917 4039 c7 -7 15 -10 18 -7 3 3 -2 9 -12 12 -14 6 -15 5 -6 -5z"/>
<path d="M3975 4015 c17 -8 37 -14 45 -14 8 0 -1 7 -20 14 -46 18 -64 17 -25
0z"/>
<path d="M4053 3993 c9 -2 23 -2 30 0 6 3 -1 5 -18 5 -16 0 -22 -2 -12 -5z"/>
<path d="M4498 3983 c7 -3 16 -2 19 1 4 3 -2 6 -13 5 -11 0 -14 -3 -6 -6z"/>
<path d="M4568 3983 c6 -2 18 -2 25 0 6 3 1 5 -13 5 -14 0 -19 -2 -12 -5z"/>
<path d="M5178 3983 c7 -3 16 -2 19 1 4 3 -2 6 -13 5 -11 0 -14 -3 -6 -6z"/>
<path d="M5293 3983 c9 -2 25 -2 35 0 9 3 1 5 -18 5 -19 0 -27 -2 -17 -5z"/>
<path d="M5468 3983 c7 -3 16 -2 19 1 4 3 -2 6 -13 5 -11 0 -14 -3 -6 -6z"/>
<path d="M5508 3983 c6 -2 18 -2 25 0 6 3 1 5 -13 5 -14 0 -19 -2 -12 -5z"/>
<path d="M5828 3983 c7 -3 16 -2 19 1 4 3 -2 6 -13 5 -11 0 -14 -3 -6 -6z"/>
<path d="M6078 3983 c7 -3 16 -2 19 1 4 3 -2 6 -13 5 -11 0 -14 -3 -6 -6z"/>
<path d="M4163 3713 c20 -2 54 -2 75 0 20 2 3 4 -38 4 -41 0 -58 -2 -37 -4z"/>
<path d="M6503 3713 c20 -2 54 -2 75 0 20 2 3 4 -38 4 -41 0 -58 -2 -37 -4z"/>
<path d="M4055 3695 c-39 -18 -31 -18 25 -1 25 8 36 15 25 15 -11 0 -33 -6
-50 -14z"/>
<path d="M4320 3695 c24 -8 46 -13 48 -11 5 5 -59 26 -77 25 -9 0 4 -7 29 -14z"/>
<path d="M6367 3686 c-94 -39 -179 -113 -231 -203 -17 -29 3 -10 26 25 57 86
144 150 246 183 31 10 48 18 37 18 -11 0 -46 -10 -78 -23z"/>
<path d="M6628 3703 c7 -3 16 -2 19 1 4 3 -2 6 -13 5 -11 0 -14 -3 -6 -6z"/>
<path d="M6675 3690 c27 -12 43 -12 25 0 -8 5 -22 9 -30 9 -10 0 -8 -3 5 -9z"/>
<path d="M3958 3651 c-26 -17 -65 -48 -88 -71 -42 -42 -100 -126 -100 -144 0
-6 13 12 30 40 37 65 109 137 174 174 28 17 46 30 40 30 -5 0 -31 -13 -56 -29z"/>
<path d="M4381 3676 c2 -2 15 -9 29 -15 24 -11 24 -11 6 3 -16 13 -49 24 -35
12z"/>
<path d="M6776 3642 c78 -51 139 -119 175 -195 16 -34 29 -56 29 -49 0 28 -55
118 -102 168 -46 49 -133 114 -153 114 -4 0 18 -17 51 -38z"/>
<path d="M4440 3648 c3 -2 34 -31 70 -63 l65 -59 -50 53 c-27 29 -59 57 -70
63 -11 6 -18 9 -15 6z"/>
<path d="M4601 3470 c14 -31 19 -36 19 -24 0 6 -7 19 -16 30 -14 18 -14 18 -3
-6z"/>
<path d="M6106 3420 c-9 -22 -16 -48 -16 -58 1 -9 9 8 20 38 22 65 20 79 -4
20z"/>
<path d="M4621 3430 c0 -3 6 -25 13 -50 8 -25 15 -36 15 -25 0 17 -26 88 -28
75z"/>
<path d="M3756 3405 c-3 -9 -6 -22 -5 -28 0 -7 5 -1 10 12 5 13 8 26 5 28 -2
2 -6 -3 -10 -12z"/>
<path d="M6981 3364 c0 -11 3 -14 6 -6 3 7 2 16 -1 19 -3 4 -6 -2 -5 -13z"/>
<path d="M3742 3340 c0 -14 2 -19 5 -12 2 6 2 18 0 25 -3 6 -5 1 -5 -13z"/>
<path d="M6083 3305 c0 -22 2 -30 4 -17 2 12 2 30 0 40 -3 9 -5 -1 -4 -23z"/>
<path d="M6992 3264 c-5 -192 -104 -346 -273 -424 -24 -11 -33 -17 -19 -14 71
17 177 102 230 186 50 76 72 162 68 258 l-4 75 -2 -81z"/>
<path d="M4652 3269 c-1 -37 -4 -82 -7 -100 l-5 -34 10 33 c6 18 9 63 7 100
l-3 67 -2 -66z"/>
<path d="M3733 3255 c0 -33 2 -45 4 -27 2 18 2 45 0 60 -2 15 -4 0 -4 -33z"/>
<path d="M6083 3205 c0 -22 2 -30 4 -17 2 12 2 30 0 40 -3 9 -5 -1 -4 -23z"/>
<path d="M3742 3170 c0 -14 2 -19 5 -12 2 6 2 18 0 25 -3 6 -5 1 -5 -13z"/>
<path d="M6091 3150 c0 -8 6 -28 14 -45 17 -39 18 -21 0 25 -7 19 -14 28 -14
20z"/>
<path d="M3750 3129 c0 -33 63 -140 115 -193 67 -68 177 -125 255 -131 l55 -4
-55 10 c-153 27 -288 135 -346 276 -13 32 -24 51 -24 42z"/>
<path d="M4599 3049 c-24 -52 -88 -126 -144 -168 -23 -17 -25 -19 -5 -10 41
20 127 113 155 168 14 29 25 55 22 57 -2 2 -14 -19 -28 -47z"/>
<path d="M6120 3061 c0 -6 4 -13 10 -16 6 -3 7 1 4 9 -7 18 -14 21 -14 7z"/>
<path d="M6151 3008 c38 -72 182 -177 264 -193 17 -3 2 5 -32 18 -78 30 -161
92 -204 152 -35 49 -47 58 -28 23z"/>
<path d="M4400 2850 c-9 -6 -10 -10 -3 -10 6 0 15 5 18 10 8 12 4 12 -15 0z"/>
<path d="M4330 2825 c-19 -7 -28 -14 -20 -14 8 0 29 6 45 14 39 17 21 18 -25
0z"/>
<path d="M6648 2813 c7 -3 16 -2 19 1 4 3 -2 6 -13 5 -11 0 -14 -3 -6 -6z"/>
<path d="M4238 2803 c12 -2 30 -2 40 0 9 3 -1 5 -23 4 -22 0 -30 -2 -17 -4z"/>
<path d="M6463 2803 c9 -2 25 -2 35 0 9 3 1 5 -18 5 -19 0 -27 -2 -17 -5z"/>
<path d="M6583 2803 c9 -2 25 -2 35 0 9 3 1 5 -18 5 -19 0 -27 -2 -17 -5z"/>
</g>
</svg>
